<?xml version="1.0" standalone="yes"?>
<svg xmlns="http://www.w3.org/2000/svg" width="1108" height="304">
<path style="fill:#ffffff; stroke:none;" d="M0 0L0 304L1108 304L1108 0L0 0z"/>
<path style="fill:#5de1e7; stroke:none;" d="M53 85L53 112L54 112C56.1988 99.665 67.665 88.1988 80 86L53 85M205 85L205 86C214.35 87.6667 221.875 94.2739 227 102L228 102L228 85L205 85z"/>
<path style="fill:#c3f4f6; stroke:none;" d="M82 90L83 91L82 90z"/>
<path style="fill:#9cedf0; stroke:none;" d="M83.6667 90.3333L84.3333 90.6667L83.6667 90.3333z"/>
<path style="fill:#5de1e7; stroke:none;" d="M85 90.439C73.4921 92.2512 63.3426 99.5616 59.7747 111C56.3633 121.937 58 134.682 58 146L58 209C58 221.344 56.1721 235.362 63.7894 245.999C72.6955 258.437 86.0948 259 100 259L166 259C177.364 259 189.797 260.404 201 258.384C212.106 256.382 221.783 249.037 225.225 238C228.637 227.063 227 214.318 227 203L227 139C227 126.466 228.686 112.553 220.471 102.004C210.947 89.7747 197.057 90 183 90C151.449 90 116.144 85.5348 85 90.439z"/>
<path style="fill:#9cedf0; stroke:none;" d="M200.667 90.3333L201.333 90.6667L200.667 90.3333z"/>
<path style="fill:#c3f4f6; stroke:none;" d="M202 90L203 91L202 90M78 91L79 92L78 91z"/>
<path style="fill:#9cedf0; stroke:none;" d="M79 91L80 92L79 91M205 91L206 92L205 91z"/>
<path style="fill:#c3f4f6; stroke:none;" d="M206 91L207 92L206 91z"/>
<path style="fill:#9cedf0; stroke:none;" d="M76 92L77 93L76 92M208 92L209 93L208 92M74 93L75 94L74 93M210 93L211 94L210 93z"/>
<path style="fill:#c3f4f6; stroke:none;" d="M72 94L73 95L72 94M212 94L213 95L212 94z"/>
<path style="fill:#9cedf0; stroke:none;" d="M71 95L72 96L71 95M213 95L214 96L213 95z"/>
<path style="fill:#c3f4f6; stroke:none;" d="M69 96L70 97L69 96M215 96L216 97L215 96z"/>
<path style="fill:#9cedf0; stroke:none;" d="M68 97L69 98L68 97M216 97L217 98L216 97M67 98L68 99L67 98M217 98L218 99L217 98M66 99L67 100L66 99M218 99L219 100L218 99z"/>
<path style="fill:#c3f4f6; stroke:none;" d="M65 100L66 101L65 100M219 100L220 101L219 100M64 101L65 102L64 101M220 101L221 102L220 101z"/>
<path style="fill:#9cedf0; stroke:none;" d="M63 103L64 104L63 103M221 103L222 104L221 103z"/>
<path style="fill:#c3f4f6; stroke:none;" d="M62 104L63 105L62 104M222 104L223 105L222 104z"/>
<path style="fill:#9cedf0; stroke:none;" d="M61 106L62 107L61 106M223 106L224 107L223 106M60 108L61 109L60 108M224 108L225 109L224 108z"/>
<path style="fill:#c3f4f6; stroke:none;" d="M59 110L60 111L59 110M225 110L226 111L225 110z"/>
<path style="fill:#9cedf0; stroke:none;" d="M59 111L60 112L59 111M225 111L226 112L225 111z"/>
<path style="fill:#c3f4f6; stroke:none;" d="M58 114L59 115L58 114M226 114L227 115L226 114z"/>
<path style="fill:#9cedf0; stroke:none;" d="M58.3333 115.667L58.6667 116.333L58.3333 115.667M226.333 115.667L226.667 116.333L226.333 115.667M141.667 118.333L142.333 118.667L141.667 118.333z"/>
<path style="fill:#c3f4f6; stroke:none;" d="M141.667 119.333L142.333 119.667L141.667 119.333z"/>
<path style="fill:#9cedf0; stroke:none;" d="M140 120L141 121L140 120z"/>
<path style="fill:#ffffff; stroke:none;" d="M141 120L106.753 192L89 231L195 231L177.247 192L143 120L141 120z"/>
<path style="fill:#9cedf0; stroke:none;" d="M143 120L144 121L143 120z"/>
<path style="fill:#c3f4f6; stroke:none;" d="M140 121L141 122L140 121M143 121L144 122L143 121M139 123L140 124L139 123M144 123L145 124L144 123M138 125L139 126L138 125M145 125L146 126L145 125z"/>
<path style="fill:#010101; stroke:none;" d="M255 126L255 132L256 132C261.669 124.558 282.082 124.128 288.606 131.214C293.408 136.428 295.266 145.468 297.681 152C302.735 165.67 308.33 179.196 313 193L314 193C316.969 182.146 322.018 171.455 326.2 161C329.384 153.04 332.202 144.856 335.62 137C339.656 127.722 363.509 119.895 369.821 131.109C372.812 136.422 371 146.07 371 152L371 201C371 207.532 372.972 217.131 368 222L368 223L395 223L395 222C388.877 218.624 391 209.116 391 203L391 147C391 140.208 388.233 128.398 397 127C385.782 122.293 366.206 126 354 126L255 126M407 126L407 127C414.714 129.342 412 141.473 412 148L412 201C412 207.532 413.972 217.131 409 222L409 223L436 223L436 222C431.028 217.131 433 207.532 433 201L433 152C433 145.91 431.3 136.617 434.318 131.109C439.834 121.042 460.546 127.461 465.135 135.004C470.676 144.111 475.677 153.636 480.769 163C485.961 172.547 492.985 182.535 496 193L497 193C497 176.665 496 160.381 496 144C496 137.046 494.23 128.369 503 127L474 126L407 126M509 126L509 127C518.532 128.488 516 139.629 516 147L516 202C516 209.156 517.349 218.155 510 222L510 223L558 223L558 222C551.73 218.543 554 208.263 554 202L554 143C547.237 143 536.392 145.086 530.144 142.397C525.254 140.291 524.943 130.846 529.303 128.028C533.1 125.574 540.655 127 545 127L584 127C588.532 127 596.895 125.413 600.566 128.603C604.527 132.045 602.558 138.581 602 143L575 143L575 202C575 208.263 577.27 218.543 571 222L571 223L647 223L647 222C641.271 216.389 644 202.593 644 195L644 159C644 153.835 642.818 146.895 644.742 142.015C648.035 133.667 664.211 134.405 670.96 137.769C677.211 140.884 678.802 148.988 681.05 155C685.798 167.693 689.514 183.725 697 195C703.652 182.509 708.074 168.205 713.189 155C715.647 148.655 717.336 140.609 724.004 137.318C729.757 134.479 745.362 134.046 748.258 141.055C750.235 145.841 749 152.906 749 158L749 196C749 203.421 751.609 216.507 746 222L746 223L788 223L788 222C781.19 215.331 786.137 199.851 784.787 191C783.091 179.881 773.3 166.812 767.861 157C765.755 153.201 758.219 142.678 760.241 138.318C762.24 134.008 774.714 135.501 777.787 137.742C785.305 143.224 791.488 162.213 794 171C803.912 164.237 802.145 139.643 815.015 136.318C818.619 135.387 829.086 134.603 829.292 140.059C829.467 144.7 824.85 150.079 822.781 154C816.843 165.254 807.086 178.53 804.39 191C802.722 198.716 808.151 217.364 801 222L801 223L874 223L874 222C869.308 217.405 871 209.158 871 203L871 156C871 150.295 869.096 140.612 875.109 137.318C880.613 134.302 892.036 135.204 896.671 139.419C901.573 143.876 904.335 151.33 907.579 157C914.636 169.336 922.533 181.873 928 195L929 195C928.338 186.614 928 178.436 928 170L928 154C928 149.776 926.737 142.975 929.028 139.228C931.8 134.694 942.236 134.527 944.972 139.148C947.71 143.771 946 152.782 946 158L946 204C946 211.034 947.268 218.414 940 222L940 223L968 223L968 222C962.2 218.802 964 210.807 964 205L964 155C964 149.105 962.199 139.532 969.044 136.742C977.597 133.257 1001.04 133.974 1009.98 136.318C1014.89 137.605 1017.12 145.67 1013.4 149.397C1008.55 154.241 989.622 151 983 151L983 173C989.872 173 1004.88 170.157 1010.68 174.028C1014.39 176.502 1014.02 185.576 1009.85 187.397C1002.95 190.412 990.506 188 983 188C983 195.53 986.641 217.695 980 222L980 223L1049 223L1049 222C1043.03 218.71 1045 209.964 1045 204L1045 151L1021 151C1020.47 146.781 1018.82 140.932 1022.51 137.603C1026.21 134.267 1035.36 136 1040 136C1055.56 136 1073.84 133.391 1089 137L1089 126L509 126z"/>
<path style="fill:#c3f4f6; stroke:none;" d="M137 127L138 128L137 127M146 127L147 128L146 127z"/>
<path style="fill:#9cedf0; stroke:none;" d="M136 129L137 130L136 129M147 129L148 130L147 129M135 131L136 132L135 131M148 131L149 132L148 131M134 133L135 134L134 133M149 133L150 134L149 133M133 135L134 136L133 135M150 135L151 136L150 135z"/>
<path style="fill:#5de1e7; stroke:none;" d="M662 222L662 154L663 154C666.979 171.197 674.556 188.492 680.808 205C682.853 210.399 684.063 219.825 690.044 222.258C694.014 223.873 702.224 223.916 705.298 220.566C709.285 216.221 710.728 207.469 712.808 202C718.627 186.697 727.222 170.143 730 154L731 154L731 184C731 193.671 727.627 210.952 731.603 219.772C733.939 224.952 747.098 224.504 748.682 218.891C750.262 213.294 749 205.796 749 200L749 160C749 154.359 750.929 144.209 747.821 139.279C745.264 135.223 739.096 136.001 735 136C716.088 135.994 714.47 150.825 708.4 166C704.543 175.642 700.755 185.319 697 195C692.17 184.672 688.628 173.654 684.576 163C682.177 156.695 679.99 150.177 677.25 144.015C673.429 135.421 650.464 130.72 645.179 140.109C642.419 145.011 644 153.546 644 159L644 202C644 206.849 642.179 216.427 645.028 220.566C648.124 225.065 657.592 222.818 662 222M804 222C804 211.633 801.54 197.615 805.796 188C810.774 176.754 817.042 165.876 822.781 155C825.082 150.638 829.656 145.21 829.639 140.059C829.617 133.512 813.766 135.045 810.637 138.318C802.286 147.055 802.36 162.383 794 171C792.487 162.488 785.51 143.184 778.61 137.742C775.686 135.437 761.303 133.9 759.708 138.318C758.223 142.432 763.472 149.474 765.248 153C771.144 164.71 782.804 178.996 784.787 192C785.95 199.626 781.586 214.113 786.028 220.566C789.208 225.188 799.455 222.844 804 222M888 160L889 160C892.652 172.678 901.374 184.491 907.694 196C911.7 203.294 915.315 212.905 921.213 218.856C925.73 223.413 936.167 224.819 941.891 221.682C948.072 218.296 946 207.864 946 202L946 160C946 153.864 947.312 145.994 945.682 140.059C944.025 134.025 930.009 134.117 928.318 140.109C924.086 155.1 927.059 179.645 929 195C923.271 185.184 918.168 174.966 912.694 165C909.201 158.641 905.66 152.257 901.988 146C896.525 136.689 871.549 128.011 871.015 145C870.472 162.296 871 179.694 871 197C871 203.357 868.968 213.927 871.603 219.772C873.787 224.614 885.988 224.433 888.258 219.721C891.991 211.97 889 196.557 889 188C889 178.611 888 169.365 888 160M983 222L983 188C989.449 188 1006.27 191.029 1011.4 186.972C1014.18 184.766 1014.02 175.246 1010.68 173.603C1004.03 170.331 990.392 173 983 173L983 151L998 151C1002.15 151 1008.88 152.268 1012.68 150.397C1016.43 148.55 1015.88 139.162 1012.68 137.028C1009.91 135.179 1005.16 136 1002 136C993.778 136 972.881 132.257 966.434 137.742C960.979 142.383 964 159.412 964 166L964 207C964 210.767 962.577 218.289 965.603 221.142C969.522 224.837 978.326 222.868 983 222M1021 151L1045 151L1045 204C1045 208.417 1043.04 218.902 1047.32 221.682C1051.36 224.309 1062.85 224.319 1064.57 218.867C1066.56 212.53 1065 203.612 1065 197L1065 151C1070.92 151 1081.33 153.031 1086.68 150.397C1090.24 148.644 1090.24 138.356 1086.68 136.603C1082.88 134.732 1076.15 136 1072 136L1038 136C1033.87 136 1026.03 134.513 1022.51 137.028C1018.5 139.898 1020.26 147.021 1021 151z"/>
<path style="fill:#9cedf0; stroke:none;" d="M132 137L133 138L132 137M151 137L152 138L151 137z"/>
<path style="fill:#c3f4f6; stroke:none;" d="M132 138L133 139L132 138M151 138L152 139L151 138z"/>
<path style="fill:#9cedf0; stroke:none;" d="M131 139L132 140L131 139M152 139L153 140L152 139z"/>
<path style="fill:#c3f4f6; stroke:none;" d="M131 140L132 141L131 140M152 140L153 141L152 140z"/>
<path style="fill:#9cedf0; stroke:none;" d="M130 141L131 142L130 141M153 141L154 142L153 141z"/>
<path style="fill:#c3f4f6; stroke:none;" d="M130 142L131 143L130 142M153 142L154 143L153 142M129 144L130 145L129 144M154 144L155 145L154 144M128 146L129 147L128 146M155 146L156 147L155 146z"/>
<path style="fill:#010101; stroke:none;" d="M275 146L275 201C275 207.532 276.972 217.131 272 222L272 223L306 223L306 222C299.423 218.559 297.658 207.665 295.344 201C289.313 183.632 284.82 161.532 275 146M350 147C344.189 164.859 337.204 182.428 330.576 200C327.869 207.177 326.091 217.051 320 222L320 223L355 223L355 222C348.73 218.543 351 208.263 351 202L351 165C351 159.381 352.189 152.216 350 147z"/>
<path style="fill:#c3f4f6; stroke:none;" d="M127 148L128 149L127 148M156 148L157 149L156 148M126 150L127 151L126 150M157 150L158 151L157 150z"/>
<path style="fill:#010101; stroke:none;" d="M1088 150L1065 151L1065 203C1065 209.1 1067.01 218.487 1061 222L1061 223L1089 223L1089 173L1088 150z"/>
<path style="fill:#9cedf0; stroke:none;" d="M125 152L126 153L125 152M158 152L159 153L158 152z"/>
<path style="fill:#010101; stroke:none;" d="M452 153L452 203C452 209.158 453.692 217.405 449 222L449 223L496 223L496 222C486.974 219.836 483.206 209.505 479.22 202C470.996 186.518 463.116 166.416 452 153z"/>
<path style="fill:#9cedf0; stroke:none;" d="M124 154L125 155L124 154M159 154L160 155L159 154z"/>
<path style="fill:#010101; stroke:none;" d="M662 154L662 204C662 209.364 663.992 218.764 659 222L659 223L690 223L690 222C684.408 217.581 683.243 210.429 680.808 204C675.049 188.793 671.718 166.992 662 154M730 154L712.424 202L703 222L703 223L734 223L734 222C729.308 217.405 731 209.158 731 203C731 189.224 735.306 166.645 730 154z"/>
<path style="fill:#9cedf0; stroke:none;" d="M123 156L124 157L123 156M160 156L161 157L160 156M122 158L123 159L122 158M161 158L162 159L161 158M121 160L122 161L121 160M162 160L163 161L162 160z"/>
<path style="fill:#010101; stroke:none;" d="M888 160C888 174.985 889 189.96 889 205C889 210.775 890.672 218.687 885 222L885 223L928 223L928 222C919.839 219.708 916.473 210.88 912.694 204C905.008 190.003 898.138 172.235 888 160z"/>
<path style="fill:#c3f4f6; stroke:none;" d="M121 161L122 162L121 161M162 161L163 162L162 161z"/>
<path style="fill:#9cedf0; stroke:none;" d="M120 162L121 163L120 162M163 162L164 163L163 162z"/>
<path style="fill:#c3f4f6; stroke:none;" d="M120 163L121 164L120 163M163 163L164 164L163 163z"/>
<path style="fill:#9cedf0; stroke:none;" d="M119 164L120 165L119 164M164 164L165 165L164 164z"/>
<path style="fill:#c3f4f6; stroke:none;" d="M119 165L120 166L119 165M164 165L165 166L164 165M118 167L119 168L118 167M165 167L166 168L165 167M117 169L118 170L117 169M166 169L167 170L166 169M116 171L117 172L116 171M167 171L168 172L167 171M115 173L116 174L115 173M168 173L169 174L168 173z"/>
<path style="fill:#9cedf0; stroke:none;" d="M114 175L115 176L114 175M169 175L170 176L169 175M113 177L114 178L113 177M170 177L171 178L170 177M112 179L113 180L112 179M171 179L172 180L171 179M111 181L112 182L111 181M172 181L173 182L172 181M110 183L111 184L110 183M173 183L174 184L173 183z"/>
<path style="fill:#c3f4f6; stroke:none;" d="M110 184L111 185L110 184M173 184L174 185L173 184z"/>
<path style="fill:#9cedf0; stroke:none;" d="M109 185L110 186L109 185M174 185L175 186L174 185z"/>
<path style="fill:#c3f4f6; stroke:none;" d="M109 186L110 187L109 186M174 186L175 187L174 186z"/>
<path style="fill:#9cedf0; stroke:none;" d="M108 187L109 188L108 187M175 187L176 188L175 187z"/>
<path style="fill:#c3f4f6; stroke:none;" d="M108 188L109 189L108 188M175 188L176 189L175 188M107 190L108 191L107 190M176 190L177 191L176 190M106 192L107 193L106 192M177 192L178 193L177 192M105 194L106 195L105 194M178 194L179 195L178 194z"/>
<path style="fill:#9cedf0; stroke:none;" d="M104 196L105 197L104 196z"/>
<path style="fill:#c3f4f6; stroke:none;" d="M179 196L180 197L179 196z"/>
<path style="fill:#9cedf0; stroke:none;" d="M103 198L104 199L103 198M180 198L181 199L180 198M102 200L103 201L102 200M181 200L182 201L181 200M101 202L102 203L101 202M182 202L183 203L182 202M100 204L101 205L100 204M183 204L184 205L183 204z"/>
<path style="fill:#c3f4f6; stroke:none;" d="M100 205L101 206L100 205M183 205L184 206L183 205z"/>
<path style="fill:#9cedf0; stroke:none;" d="M99 206L100 207L99 206M184 206L185 207L184 206z"/>
<path style="fill:#c3f4f6; stroke:none;" d="M99 207L100 208L99 207M184 207L185 208L184 207z"/>
<path style="fill:#9cedf0; stroke:none;" d="M98 208L99 209L98 208M185 208L186 209L185 208z"/>
<path style="fill:#c3f4f6; stroke:none;" d="M98 209L99 210L98 209M185 209L186 210L185 209z"/>
<path style="fill:#9cedf0; stroke:none;" d="M97 210L98 211L97 210M186 210L187 211L186 210z"/>
<path style="fill:#c3f4f6; stroke:none;" d="M97 211L98 212L97 211M186 211L187 212L186 211M96 213L97 214L96 213M187 213L188 214L187 213M95 215L96 216L95 215M188 215L189 216L188 215M94 217L95 218L94 217M189 217L190 218L189 217z"/>
<path style="fill:#9cedf0; stroke:none;" d="M93 219L94 220L93 219M190 219L191 220L190 219M92 221L93 222L92 221M191 221L192 222L191 221z"/>
<path style="fill:#010101; stroke:none;" d="M255 221L259 223L259 222L255 221z"/>
<path style="fill:#9cedf0; stroke:none;" d="M91 223L92 224L91 223M192 223L193 224L192 223M90 225L91 226L90 225M193 225L194 226L193 225M89 227L90 228L89 227M194 227L195 228L194 227z"/>
<path style="fill:#c3f4f6; stroke:none;" d="M89 228L90 229L89 228M194 228L195 229L194 228z"/>
<path style="fill:#9cedf0; stroke:none;" d="M88 229L89 230L88 229M195 229L196 230L195 229z"/>
<path style="fill:#c3f4f6; stroke:none;" d="M88 230L89 231L88 230M195 230L196 231L195 230z"/>
<path style="fill:#9cedf0; stroke:none;" d="M58.3333 232.667L58.6667 233.333L58.3333 232.667M226.333 232.667L226.667 233.333L226.333 232.667z"/>
<path style="fill:#c3f4f6; stroke:none;" d="M58 234L59 235L58 234M226 234L227 235L226 234z"/>
<path style="fill:#5de1e7; stroke:none;" d="M53 237L53 264L80 264L80 263C65.3935 260.396 59.5368 248.569 53 237z"/>
<path style="fill:#9cedf0; stroke:none;" d="M59 237L60 238L59 237M225 237L226 238L225 237z"/>
<path style="fill:#c3f4f6; stroke:none;" d="M59 238L60 239L59 238M225 238L226 239L225 238z"/>
<path style="fill:#9cedf0; stroke:none;" d="M60 240L61 241L60 240M224 240L225 241L224 240M61 242L62 243L61 242M223 242L224 243L223 242z"/>
<path style="fill:#c3f4f6; stroke:none;" d="M62 244L63 245L62 244M222 244L223 245L222 244z"/>
<path style="fill:#9cedf0; stroke:none;" d="M63 245L64 246L63 245M221 245L222 246L221 245z"/>
<path style="fill:#c3f4f6; stroke:none;" d="M64 247L65 248L64 247M220 247L221 248L220 247z"/>
<path style="fill:#5de1e7; stroke:none;" d="M227 247C221.875 254.726 214.35 261.333 205 263L205 264L228 264L227 247z"/>
<path style="fill:#c3f4f6; stroke:none;" d="M65 248L66 249L65 248M219 248L220 249L219 248z"/>
<path style="fill:#9cedf0; stroke:none;" d="M66 249L67 250L66 249M218 249L219 250L218 249M67 250L68 251L67 250M217 250L218 251L217 250M68 251L69 252L68 251M216 251L217 252L216 251z"/>
<path style="fill:#c3f4f6; stroke:none;" d="M69 252L70 253L69 252M215 252L216 253L215 252z"/>
<path style="fill:#9cedf0; stroke:none;" d="M71 253L72 254L71 253M213 253L214 254L213 253z"/>
<path style="fill:#c3f4f6; stroke:none;" d="M72 254L73 255L72 254M212 254L213 255L212 254z"/>
<path style="fill:#9cedf0; stroke:none;" d="M74 255L75 256L74 255M210 255L211 256L210 255M76 256L77 257L76 256M208 256L209 257L208 256z"/>
<path style="fill:#c3f4f6; stroke:none;" d="M78 257L79 258L78 257z"/>
<path style="fill:#9cedf0; stroke:none;" d="M79 257L80 258L79 257M205 257L206 258L205 257z"/>
<path style="fill:#c3f4f6; stroke:none;" d="M206 257L207 258L206 257M82 258L83 259L82 258z"/>
<path style="fill:#9cedf0; stroke:none;" d="M83.6667 258.333L84.3333 258.667L83.6667 258.333M200.667 258.333L201.333 258.667L200.667 258.333z"/>
<path style="fill:#c3f4f6; stroke:none;" d="M202 258L203 259L202 258z"/>
</svg>
